<?xml version="1.0" encoding="utf-8"?>
<!-- Generator: Adobe Illustrator 25.2.1, SVG Export Plug-In . SVG Version: 6.00 Build 0)  -->
<svg version="1.1" id="Layer_1" xmlns="http://www.w3.org/2000/svg" x="0px" y="0px" viewBox="900 500 700 1224">
<style type="text/css">
	.st0{fill:orange;stroke:#000000;stroke-width:3;stroke-miterlimit:10;}

</style>
<path d="M76.5,778.1v-67.4c0-8.4,2.5-15.2,7.6-20.5c5.1-5.3,11.6-7.9,19.7-7.9c9.6,0,17,4.4,22.1,13.2c3.1-4.7,6.5-8.1,10.1-10.2
	c3.6-2,8.1-3,13.4-3c8.4,0,14.8,2.6,19.3,7.9c4.5,5.3,6.7,12.9,6.7,22.9v65h-27.8v-60.8c0-3-0.2-5-0.7-6c-0.5-1-1.4-1.5-2.9-1.5
	c-2.7,0-4.1,2.3-4.1,7v61.3h-27.8v-60.8c0-3-0.3-5-0.8-6c-0.5-1-1.5-1.5-2.9-1.5c-2.7,0-4.1,2.5-4.1,7.5v60.8H76.5z"/>
<path d="M293.4,778.1v-60.7c0-10.6,3.2-19.1,9.6-25.5c6.4-6.4,14.8-9.6,25.4-9.6c10.5,0,18.6,3.1,24.2,9.3
	c5.6,6.2,8.4,15.1,8.4,26.8v59.7h-27.8v-59.7c0-5.7-2-8.6-6.1-8.6c-3.9,0-5.9,2.9-5.9,8.6v59.7H293.4z"/>
<path d="M386,778.1v-60.7c0-10.6,3.2-19.1,9.6-25.5c6.4-6.4,14.8-9.6,25.4-9.6c10.5,0,18.6,3.1,24.2,9.3c5.6,6.2,8.4,15.1,8.4,26.8
	v59.7h-27.8v-59.7c0-5.7-2-8.6-6.1-8.6c-3.9,0-5.9,2.9-5.9,8.6v59.7H386z"/>
<g>
	<polygon class="st0" points="233.5,689.9 212.3,702.5 212.6,727.1 234,739.1 255.2,726.6 254.9,702 	"/>
	<polyline class="st0" points="254.9,702 233.2,714.2 234,739.1 	"/>
</g>
<g>
	<polygon class="st0" points="210,731.1 188.8,743.7 189.1,768.3 210.5,780.3 231.7,767.8 231.4,743.2 	"/>
	<polyline class="st0" points="231.4,743.2 209.7,755.4 210.5,780.3"/>
</g>
<g>
	<polygon class="st0" points="257.8,730.7 236.6,743.3 236.9,767.9 258.4,779.9 279.5,767.4 279.2,742.8 	"/>
	<polyline class="st0" points="279.2,742.8 257.6,755 258.3,779.9"/>
</g>
</svg>
